# xmcd
#
# Track frame offsets:
#	150
#	15338
#	29433
#	43225
#	58000
#	73021
#	89291
#	105789
#	120288
#	132916
#	145079
#	158977
#	175092
#	187519
#	200251
#
# Disc length: 2905 seconds
#
# Revision: 1
# Processed by: cddbd v1.5.2PL0 Copyright (c) Steve Scherf et al.
# Submitted via: audiograbber 1.83.01
#
DISCID=b80b570f
DTITLE=Die fidelen Mölltaler - Das Beste - Unsere größten Hits - CD 04
DYEAR=1900
DGENRE=Volkstümliche Musik
TTITLE0=Warum nur, das frag ich dich
TTITLE1=Mit einer wilden Rose
TTITLE2=Du bist die Liebe meines Lebens
TTITLE3=Nimm mir meine Einsamkeit
TTITLE4=Deine Augen sagen mehr als 1000 Worte
TTITLE5=Rosen schenk ich dir
TTITLE6=Auch wenn du schweigst
TTITLE7=So wie du
TTITLE8=Am Schiff der Träume
TTITLE9=Die Liebe von dir
TTITLE10=Sag mir wenn du traurig bist
TTITLE11=Schließe deine Augen
TTITLE12=Tal der Tränen
TTITLE13=Du schsffst das Leben
TTITLE14=Ich möchte dich nie wieder aus den Augen verlier'n
EXTD=
EXTT0=
EXTT1=
EXTT2=
EXTT3=
EXTT4=
EXTT5=
EXTT6=
EXTT7=
EXTT8=
EXTT9=
EXTT10=
EXTT11=
EXTT12=
EXTT13=
EXTT14=
PLAYORDER=
